<?xml version="1.0" standalone="no"?>
<!DOCTYPE svg PUBLIC "-//W3C//DTD SVG 20010904//EN"
 "http://www.w3.org/TR/2001/REC-SVG-20010904/DTD/svg10.dtd">
<svg version="1.0" xmlns="http://www.w3.org/2000/svg"
 width="2767.000000pt" height="2086.000000pt" viewBox="0 0 2767.000000 2086.000000"
 preserveAspectRatio="xMidYMid meet">

<g transform="translate(0.000000,2086.000000) scale(0.100000,-0.100000)"
fill="#000000" stroke="none">
<path d="M11165 20853 c-373 -49 -694 -200 -957 -451 -243 -233 -398 -511
-480 -867 -19 -82 -22 -128 -25 -527 l-4 -438 3438 -3 c3793 -3 3476 2 3787
-63 294 -62 672 -221 931 -391 415 -274 746 -642 965 -1073 149 -295 226 -532
282 -875 l23 -140 2 -4402 3 -4403 674 0 675 0 3083 -1877 c1695 -1032 3103
-1882 3127 -1890 57 -17 76 -16 142 3 41 12 66 28 104 67 75 78 94 167 56 264
-10 27 -413 809 -894 1738 l-876 1690 512 6 c472 5 520 8 611 27 341 73 601
215 846 461 239 240 378 492 452 823 l23 103 0 5405 0 5405 -23 103 c-74 331
-213 583 -452 823 -245 246 -500 385 -846 461 l-99 22 -7525 2 c-4139 0 -7538
-1 -7555 -3z"/>
<path d="M1490 17409 c-335 -32 -687 -185 -931 -406 -281 -254 -448 -543 -531
-919 l-22 -99 -4 -5330 c-2 -3933 0 -5355 8 -5425 48 -402 251 -787 548 -1043
202 -174 409 -287 649 -353 228 -62 22 -57 2609 -63 l2362 -6 -845 -1630
c-465 -896 -865 -1672 -890 -1723 -54 -108 -63 -167 -39 -239 35 -105 129
-173 240 -173 38 0 76 7 101 19 22 10 1419 858 3105 1885 l3065 1866 2735 0
c1722 0 2770 4 2830 10 270 28 522 115 737 256 431 281 701 723 753 1233 14
139 14 10516 0 10651 -22 211 -76 396 -170 585 -81 162 -172 287 -310 425
-281 281 -616 439 -1019 480 -125 12 -14849 12 -14981 -1z m14995 -1293 c77
-38 153 -114 191 -191 l29 -60 0 -5270 0 -5270 -27 -57 c-37 -80 -107 -152
-187 -191 l-66 -32 -2935 -5 -2935 -5 -1669 -1017 c-918 -560 -1671 -1016
-1673 -1015 -1 2 233 460 522 1017 289 558 525 1016 525 1017 0 2 -1511 4
-3358 5 l-3357 3 -61 32 c-115 60 -192 162 -214 283 -7 37 -9 1775 -8 5270 l3
5215 23 57 c41 102 149 200 255 234 35 10 1345 12 7462 11 l7420 -2 60 -29z"/>
<path d="M4171 14479 c-73 -14 -141 -39 -226 -82 -62 -32 -102 -63 -176 -137
-82 -81 -102 -109 -142 -190 -26 -52 -56 -131 -67 -174 -24 -95 -26 -240 -5
-338 60 -286 276 -513 566 -595 62 -17 230 -18 4359 -18 l4295 0 79 23 c139
40 229 94 336 202 107 107 149 172 191 292 122 358 -23 739 -355 933 -23 13
-84 39 -136 57 l-95 33 -4290 1 c-2405 1 -4309 -2 -4334 -7z"/>
<path d="M4192 11359 c-163 -27 -308 -103 -427 -224 -84 -84 -131 -154 -172
-255 -73 -181 -70 -419 8 -595 78 -179 235 -333 412 -408 146 -61 -236 -57
4978 -57 4761 0 4776 0 4855 20 480 123 725 638 515 1084 -95 202 -288 362
-512 423 -61 17 -316 18 -4834 19 -2752 1 -4793 -2 -4823 -7z"/>
<path d="M4175 8235 c-483 -88 -761 -595 -579 -1054 91 -231 305 -411 554
-465 69 -15 354 -16 3410 -14 l3335 3 80 28 c328 115 535 399 535 734 0 137
-21 225 -82 353 -45 92 -61 115 -142 195 -130 128 -240 187 -414 221 -104 20
-6588 19 -6697 -1z"/>
</g>
</svg>
